<?xml version="1.0" encoding="utf-8" standalone="no"?>
<!DOCTYPE svg PUBLIC "-//W3C//DTD SVG 1.1//EN"
  "http://www.w3.org/Graphics/SVG/1.1/DTD/svg11.dtd">
<svg xmlns:xlink="http://www.w3.org/1999/xlink" width="438.768089pt" height="336.105859pt" viewBox="0 0 438.768089 336.105859" xmlns="http://www.w3.org/2000/svg" version="1.1">
 <metadata>
  <rdf:RDF xmlns:dc="http://purl.org/dc/elements/1.1/" xmlns:cc="http://creativecommons.org/ns#" xmlns:rdf="http://www.w3.org/1999/02/22-rdf-syntax-ns#">
   <cc:Work>
    <dc:type rdf:resource="http://purl.org/dc/dcmitype/StillImage"/>
    <dc:date>2022-01-01T05:00:00+00:00</dc:date>
    <dc:format>image/svg+xml</dc:format>
    <dc:creator>
     <cc:Agent>
      <dc:title>Matplotlib v3.11.0, https://matplotlib.org/</dc:title>
     </cc:Agent>
    </dc:creator>
   </cc:Work>
  </rdf:RDF>
 </metadata>
 <defs>
  <style type="text/css">*{stroke-linejoin: round; stroke-linecap: butt}</style>
 </defs>
 <g id="figure_1">
  <g id="patch_1">
   <path d="M 0 336.105859
L 438.768089 336.105859
L 438.768089 0
L 0 0
z
" style="fill: #ffffff"/>
  </g>
  <g id="axes_1">
   <g id="patch_2">
    <path d="M 47.325391 299.136328
L 410.025391 299.136328
L 410.025391 21.936328
L 47.325391 21.936328
z
" style="fill: #ffffff"/>
   </g>
   <g id="matplotlib.axis_1">
    <g id="xtick_1">
     <g id="line2d_1">
      <defs>
       <path id="m3c3bd27f0f" d="M 0 0
L 0 3.5
" style="stroke: #000000; stroke-width: 0.8"/>
      </defs>
      <g>
       <use xlink:href="#m3c3bd27f0f" x="85.383893" y="299.136328" style="stroke: #000000; stroke-width: 0.8"/>
      </g>
     </g>
     <g id="text_1">
      <text style="font-size: 10px; font-family: 'Liberation Sans', 'Arimo', 'DejaVu Sans'; text-anchor: middle" x="85.383893" y="313.416602" transform="rotate(-0 85.383893 313.416602)">−6</text>
     </g>
    </g>
    <g id="xtick_2">
     <g id="line2d_2">
      <g>
       <use xlink:href="#m3c3bd27f0f" x="159.863191" y="299.136328" style="stroke: #000000; stroke-width: 0.8"/>
      </g>
     </g>
     <g id="text_2">
      <text style="font-size: 10px; font-family: 'Liberation Sans', 'Arimo', 'DejaVu Sans'; text-anchor: middle" x="159.863191" y="313.416602" transform="rotate(-0 159.863191 313.416602)">−4</text>
     </g>
    </g>
    <g id="xtick_3">
     <g id="line2d_3">
      <g>
       <use xlink:href="#m3c3bd27f0f" x="234.342489" y="299.136328" style="stroke: #000000; stroke-width: 0.8"/>
      </g>
     </g>
     <g id="text_3">
      <text style="font-size: 10px; font-family: 'Liberation Sans', 'Arimo', 'DejaVu Sans'; text-anchor: middle" x="234.342489" y="313.416602" transform="rotate(-0 234.342489 313.416602)">−2</text>
     </g>
    </g>
    <g id="xtick_4">
     <g id="line2d_4">
      <g>
       <use xlink:href="#m3c3bd27f0f" x="308.821787" y="299.136328" style="stroke: #000000; stroke-width: 0.8"/>
      </g>
     </g>
     <g id="text_4">
      <text style="font-size: 10px; font-family: 'Liberation Sans', 'Arimo', 'DejaVu Sans'; text-anchor: middle" x="308.821787" y="313.416602" transform="rotate(-0 308.821787 313.416602)">0</text>
     </g>
    </g>
    <g id="xtick_5">
     <g id="line2d_5">
      <g>
       <use xlink:href="#m3c3bd27f0f" x="383.301084" y="299.136328" style="stroke: #000000; stroke-width: 0.8"/>
      </g>
     </g>
     <g id="text_5">
      <text style="font-size: 10px; font-family: 'Liberation Sans', 'Arimo', 'DejaVu Sans'; text-anchor: middle" x="383.301084" y="313.416602" transform="rotate(-0 383.301084 313.416602)">2</text>
     </g>
    </g>
    <g id="text_6">
     <text style="font-size: 10px; font-family: 'Liberation Sans', 'Arimo', 'DejaVu Sans'; text-anchor: middle" x="228.675391" y="326.801367" transform="rotate(-0 228.675391 326.801367)">Landscape dim 1</text>
    </g>
   </g>
   <g id="matplotlib.axis_2">
    <g id="ytick_1">
     <g id="line2d_6">
      <defs>
       <path id="m5955c01e44" d="M 0 0
L -3.5 0
" style="stroke: #000000; stroke-width: 0.8"/>
      </defs>
      <g>
       <use xlink:href="#m5955c01e44" x="47.325391" y="270.723495" style="stroke: #000000; stroke-width: 0.8"/>
      </g>
     </g>
     <g id="text_7">
      <text style="font-size: 10px; font-family: 'Liberation Sans', 'Arimo', 'DejaVu Sans'; text-anchor: end" x="40.325391" y="274.363631" transform="rotate(-0 40.325391 274.363631)">−1.5</text>
     </g>
    </g>
    <g id="ytick_2">
     <g id="line2d_7">
      <g>
       <use xlink:href="#m5955c01e44" x="47.325391" y="236.544004" style="stroke: #000000; stroke-width: 0.8"/>
      </g>
     </g>
     <g id="text_8">
      <text style="font-size: 10px; font-family: 'Liberation Sans', 'Arimo', 'DejaVu Sans'; text-anchor: end" x="40.325391" y="240.184141" transform="rotate(-0 40.325391 240.184141)">−1.0</text>
     </g>
    </g>
    <g id="ytick_3">
     <g id="line2d_8">
      <g>
       <use xlink:href="#m5955c01e44" x="47.325391" y="202.364514" style="stroke: #000000; stroke-width: 0.8"/>
      </g>
     </g>
     <g id="text_9">
      <text style="font-size: 10px; font-family: 'Liberation Sans', 'Arimo', 'DejaVu Sans'; text-anchor: end" x="40.325391" y="206.004651" transform="rotate(-0 40.325391 206.004651)">−0.5</text>
     </g>
    </g>
    <g id="ytick_4">
     <g id="line2d_9">
      <g>
       <use xlink:href="#m5955c01e44" x="47.325391" y="168.185024" style="stroke: #000000; stroke-width: 0.8"/>
      </g>
     </g>
     <g id="text_10">
      <text style="font-size: 10px; font-family: 'Liberation Sans', 'Arimo', 'DejaVu Sans'; text-anchor: end" x="40.325391" y="171.82516" transform="rotate(-0 40.325391 171.82516)">0.0</text>
     </g>
    </g>
    <g id="ytick_5">
     <g id="line2d_10">
      <g>
       <use xlink:href="#m5955c01e44" x="47.325391" y="134.005533" style="stroke: #000000; stroke-width: 0.8"/>
      </g>
     </g>
     <g id="text_11">
      <text style="font-size: 10px; font-family: 'Liberation Sans', 'Arimo', 'DejaVu Sans'; text-anchor: end" x="40.325391" y="137.64567" transform="rotate(-0 40.325391 137.64567)">0.5</text>
     </g>
    </g>
    <g id="ytick_6">
     <g id="line2d_11">
      <g>
       <use xlink:href="#m5955c01e44" x="47.325391" y="99.826043" style="stroke: #000000; stroke-width: 0.8"/>
      </g>
     </g>
     <g id="text_12">
      <text style="font-size: 10px; font-family: 'Liberation Sans', 'Arimo', 'DejaVu Sans'; text-anchor: end" x="40.325391" y="103.46618" transform="rotate(-0 40.325391 103.46618)">1.0</text>
     </g>
    </g>
    <g id="ytick_7">
     <g id="line2d_12">
      <g>
       <use xlink:href="#m5955c01e44" x="47.325391" y="65.646553" style="stroke: #000000; stroke-width: 0.8"/>
      </g>
     </g>
     <g id="text_13">
      <text style="font-size: 10px; font-family: 'Liberation Sans', 'Arimo', 'DejaVu Sans'; text-anchor: end" x="40.325391" y="69.28669" transform="rotate(-0 40.325391 69.28669)">1.5</text>
     </g>
    </g>
    <g id="ytick_8">
     <g id="line2d_13">
      <g>
       <use xlink:href="#m5955c01e44" x="47.325391" y="31.467063" style="stroke: #000000; stroke-width: 0.8"/>
      </g>
     </g>
     <g id="text_14">
      <text style="font-size: 10px; font-family: 'Liberation Sans', 'Arimo', 'DejaVu Sans'; text-anchor: end" x="40.325391" y="35.107199" transform="rotate(-0 40.325391 35.107199)">2.0</text>
     </g>
    </g>
    <g id="text_15">
     <text style="font-size: 10px; font-family: 'Liberation Sans', 'Arimo', 'DejaVu Sans'; text-anchor: middle" x="14.480273" y="160.536328" transform="rotate(-90 14.480273 160.536328)">Landscape dim 2</text>
    </g>
   </g>
   <g id="patch_3">
    <path d="M 47.325391 299.136328
L 47.325391 21.936328
" style="fill: none; stroke: #000000; stroke-width: 0.8; stroke-linejoin: miter; stroke-linecap: square"/>
   </g>
   <g id="patch_4">
    <path d="M 410.025391 299.136328
L 410.025391 21.936328
" style="fill: none; stroke: #000000; stroke-width: 0.8; stroke-linejoin: miter; stroke-linecap: square"/>
   </g>
   <g id="patch_5">
    <path d="M 47.325391 299.136328
L 410.025391 299.136328
" style="fill: none; stroke: #000000; stroke-width: 0.8; stroke-linejoin: miter; stroke-linecap: square"/>
   </g>
   <g id="patch_6">
    <path d="M 47.325391 21.936328
L 410.025391 21.936328
" style="fill: none; stroke: #000000; stroke-width: 0.8; stroke-linejoin: miter; stroke-linecap: square"/>
   </g>
   <g id="PathCollection_1">
    <defs>
     <path id="m09752c07fe" d="M 0 6.708204
C 1.779036 6.708204 3.485448 6.001385 4.743416 4.743416
C 6.001385 3.485448 6.708204 1.779036 6.708204 0
C 6.708204 -1.779036 6.001385 -3.485448 4.743416 -4.743416
C 3.485448 -6.001385 1.779036 -6.708204 0 -6.708204
C -1.779036 -6.708204 -3.485448 -6.001385 -4.743416 -4.743416
C -6.001385 -3.485448 -6.708204 -1.779036 -6.708204 0
C -6.708204 1.779036 -6.001385 3.485448 -4.743416 4.743416
C -3.485448 6.001385 -1.779036 6.708204 0 6.708204
z
" style="stroke: #000000"/>
    </defs>
    <g clip-path="url(#p7ab1dce864)">
     <use xlink:href="#m09752c07fe" x="63.811754" y="155.634554" style="fill: #0279ee; stroke: #000000"/>
    </g>
   </g>
   <g id="text_16">
    <text style="font-size: 9px; font-family: 'Liberation Sans', 'Arimo', 'DejaVu Sans'; text-anchor: start" x="71.811754" y="151.634554" transform="rotate(-0 71.811754 151.634554)">151507</text>
   </g>
   <g id="PathCollection_2">
    <g clip-path="url(#p7ab1dce864)">
     <use xlink:href="#m09752c07fe" x="340.975872" y="279.549133" style="fill: #0279ee; stroke: #000000"/>
    </g>
   </g>
   <g id="text_17">
    <text style="font-size: 9px; font-family: 'Liberation Sans', 'Arimo', 'DejaVu Sans'; text-anchor: start" x="348.975872" y="275.549133" transform="rotate(-0 348.975872 275.549133)">151669</text>
   </g>
   <g id="PathCollection_3">
    <defs>
     <path id="mb871a1b4ce" d="M 0 6.708204
C 1.779036 6.708204 3.485448 6.001385 4.743416 4.743416
C 6.001385 3.485448 6.708204 1.779036 6.708204 0
C 6.708204 -1.779036 6.001385 -3.485448 4.743416 -4.743416
C 3.485448 -6.001385 1.779036 -6.708204 0 -6.708204
C -1.779036 -6.708204 -3.485448 -6.001385 -4.743416 -4.743416
C -6.001385 -3.485448 -6.708204 -1.779036 -6.708204 0
C -6.708204 1.779036 -6.001385 3.485448 -4.743416 4.743416
C -3.485448 6.001385 -1.779036 6.708204 0 6.708204
z
" style="stroke: #000000"/>
    </defs>
    <g clip-path="url(#p7ab1dce864)">
     <use xlink:href="#mb871a1b4ce" x="378.444941" y="286.536328" style="fill: #75a025; stroke: #000000"/>
    </g>
   </g>
   <g id="text_18">
    <text style="font-size: 9px; font-family: 'Liberation Sans', 'Arimo', 'DejaVu Sans'; text-anchor: start" x="386.444941" y="282.536328" transform="rotate(-0 386.444941 282.536328)">151670</text>
   </g>
   <g id="PathCollection_4">
    <defs>
     <path id="m6e5a450b7a" d="M 0 6.708204
C 1.779036 6.708204 3.485448 6.001385 4.743416 4.743416
C 6.001385 3.485448 6.708204 1.779036 6.708204 0
C 6.708204 -1.779036 6.001385 -3.485448 4.743416 -4.743416
C 3.485448 -6.001385 1.779036 -6.708204 0 -6.708204
C -1.779036 -6.708204 -3.485448 -6.001385 -4.743416 -4.743416
C -6.001385 -3.485448 -6.708204 -1.779036 -6.708204 0
C -6.708204 1.779036 -6.001385 3.485448 -4.743416 4.743416
C -3.485448 6.001385 -1.779036 6.708204 0 6.708204
z
" style="stroke: #000000"/>
    </defs>
    <g clip-path="url(#p7ab1dce864)">
     <use xlink:href="#m6e5a450b7a" x="367.337338" y="34.536328" style="fill: #ff9400; stroke: #000000"/>
    </g>
   </g>
   <g id="text_19">
    <text style="font-size: 9px; font-family: 'Liberation Sans', 'Arimo', 'DejaVu Sans'; text-anchor: start" x="375.337338" y="30.536328" transform="rotate(-0 375.337338 30.536328)">151673</text>
   </g>
   <g id="PathCollection_5">
    <g clip-path="url(#p7ab1dce864)">
     <use xlink:href="#m6e5a450b7a" x="393.539027" y="84.668775" style="fill: #ff9400; stroke: #000000"/>
    </g>
   </g>
   <g id="text_20">
    <text style="font-size: 9px; font-family: 'Liberation Sans', 'Arimo', 'DejaVu Sans'; text-anchor: start" x="401.539027" y="80.668775" transform="rotate(-0 401.539027 80.668775)">151674</text>
   </g>
   <g id="text_21">
    <text style="font-size: 12px; font-family: 'Liberation Sans', 'Arimo', 'DejaVu Sans'; text-anchor: middle" x="228.675391" y="15.936328" transform="rotate(-0 228.675391 15.936328)">Dataset feature landscape (coloured by best method)</text>
   </g>
   <g id="legend_1">
    <g id="patch_7">
     <path d="M 52.925391 76.244531
L 142.556641 76.244531
Q 144.156641 76.244531 144.156641 74.644531
L 144.156641 27.536328
Q 144.156641 25.936328 142.556641 25.936328
L 52.925391 25.936328
Q 51.325391 25.936328 51.325391 27.536328
L 51.325391 74.644531
Q 51.325391 76.244531 52.925391 76.244531
z
" style="fill: #ffffff; opacity: 0.8; stroke: #cccccc; stroke-linejoin: miter"/>
    </g>
    <g id="text_22">
     <text style="font-size: 10px; font-family: 'Liberation Sans', 'Arimo', 'DejaVu Sans'; text-anchor: start" x="69.671484" y="36.416602" transform="rotate(-0 69.671484 36.416602)">Best method</text>
    </g>
    <g id="line2d_14">
     <defs>
      <path id="m54e5a36ddf" d="M 0 5
C 1.326016 5 2.597899 4.473168 3.535534 3.535534
C 4.473168 2.597899 5 1.326016 5 0
C 5 -1.326016 4.473168 -2.597899 3.535534 -3.535534
C 2.597899 -4.473168 1.326016 -5 0 -5
C -1.326016 -5 -2.597899 -4.473168 -3.535534 -3.535534
C -4.473168 -2.597899 -5 -1.326016 -5 0
C -5 1.326016 -4.473168 2.597899 -3.535534 3.535534
C -2.597899 4.473168 -1.326016 5 0 5
z
" style="stroke: #000000"/>
     </defs>
     <g>
      <use xlink:href="#m54e5a36ddf" x="62.525391" y="45.545313" style="fill: #0279ee; stroke: #000000"/>
     </g>
    </g>
    <g id="text_23">
     <text style="font-size: 8px; font-family: 'Liberation Sans', 'Arimo', 'DejaVu Sans'; text-anchor: start" x="76.925391" y="48.345313" transform="rotate(-0 76.925391 48.345313)">bisecting_kmeans</text>
    </g>
    <g id="line2d_15">
     <defs>
      <path id="m6ae6dc4204" d="M 0 5
C 1.326016 5 2.597899 4.473168 3.535534 3.535534
C 4.473168 2.597899 5 1.326016 5 0
C 5 -1.326016 4.473168 -2.597899 3.535534 -3.535534
C 2.597899 -4.473168 1.326016 -5 0 -5
C -1.326016 -5 -2.597899 -4.473168 -3.535534 -3.535534
C -4.473168 -2.597899 -5 -1.326016 -5 0
C -5 1.326016 -4.473168 2.597899 -3.535534 3.535534
C -2.597899 4.473168 -1.326016 5 0 5
z
" style="stroke: #000000"/>
     </defs>
     <g>
      <use xlink:href="#m6ae6dc4204" x="62.525391" y="57.053125" style="fill: #ff9400; stroke: #000000"/>
     </g>
    </g>
    <g id="text_24">
     <text style="font-size: 8px; font-family: 'Liberation Sans', 'Arimo', 'DejaVu Sans'; text-anchor: start" x="76.925391" y="59.853125" transform="rotate(-0 76.925391 59.853125)">kmeans</text>
    </g>
    <g id="line2d_16">
     <defs>
      <path id="m4df64fa42e" d="M 0 5
C 1.326016 5 2.597899 4.473168 3.535534 3.535534
C 4.473168 2.597899 5 1.326016 5 0
C 5 -1.326016 4.473168 -2.597899 3.535534 -3.535534
C 2.597899 -4.473168 1.326016 -5 0 -5
C -1.326016 -5 -2.597899 -4.473168 -3.535534 -3.535534
C -4.473168 -2.597899 -5 -1.326016 -5 0
C -5 1.326016 -4.473168 2.597899 -3.535534 3.535534
C -2.597899 4.473168 -1.326016 5 0 5
z
" style="stroke: #000000"/>
     </defs>
     <g>
      <use xlink:href="#m4df64fa42e" x="62.525391" y="68.560938" style="fill: #75a025; stroke: #000000"/>
     </g>
    </g>
    <g id="text_25">
     <text style="font-size: 8px; font-family: 'Liberation Sans', 'Arimo', 'DejaVu Sans'; text-anchor: start" x="76.925391" y="71.360938" transform="rotate(-0 76.925391 71.360938)">spectral</text>
    </g>
   </g>
  </g>
 </g>
 <defs>
  <clipPath id="p7ab1dce864">
   <rect x="47.325391" y="21.936328" width="362.7" height="277.2"/>
  </clipPath>
 </defs>
</svg>
