<svg xmlns="http://www.w3.org/2000/svg" width="910" height="354" viewBox="0 0 910 354" font-family="Liberation Sans, Arial, sans-serif">
<rect width="910" height="354" fill="#FFFFFF"/>
<text x="455.0" y="24" font-size="14" text-anchor="middle" font-weight="bold">Pareto frontier — dataset 151669 (8/15 non-dominated)</text>
<rect x="92.0" y="50.0" width="230.0" height="230.0" fill="#FAF9F3" stroke="#000000" stroke-width="1"/>
<text x="207.0" y="320.0" font-size="11" text-anchor="middle">speed (s) (min)</text>
<text x="32.0" y="165.0" font-size="11" text-anchor="middle" transform="rotate(-90 32.0 165.0)">accuracy (ARI) (max)</text>
<line x1="92.0" y1="280.0" x2="92.0" y2="284.0" stroke="#000000" stroke-width="0.8"/>
<text x="92.0" y="296.0" font-size="8.5" text-anchor="middle" fill="#333333">7.05</text>
<line x1="207.0" y1="280.0" x2="207.0" y2="284.0" stroke="#000000" stroke-width="0.8"/>
<text x="207.0" y="296.0" font-size="8.5" text-anchor="middle" fill="#333333">8.75</text>
<line x1="322.0" y1="280.0" x2="322.0" y2="284.0" stroke="#000000" stroke-width="0.8"/>
<text x="322.0" y="296.0" font-size="8.5" text-anchor="middle" fill="#333333">10.44</text>
<line x1="88.0" y1="280.0" x2="92.0" y2="280.0" stroke="#000000" stroke-width="0.8"/>
<text x="85.0" y="283.0" font-size="8.5" text-anchor="end" fill="#333333">0.0303</text>
<line x1="88.0" y1="165.0" x2="92.0" y2="165.0" stroke="#000000" stroke-width="0.8"/>
<text x="85.0" y="168.0" font-size="8.5" text-anchor="end" fill="#333333">0.1099</text>
<line x1="88.0" y1="50.0" x2="92.0" y2="50.0" stroke="#000000" stroke-width="0.8"/>
<text x="85.0" y="53.0" font-size="8.5" text-anchor="end" fill="#333333">0.1895</text>
<polyline points="92.0,280.0 95.1,127.9 101.3,259.9 134.4,62.6 137.3,113.7 142.8,53.6 156.1,65.7 162.6,50.0" fill="none" stroke="#FF9400" stroke-width="2" stroke-dasharray="4 3"/>
<circle cx="95.1" cy="127.9" r="5.0" fill="#FF9400" stroke="#000000" stroke-width="0.7"><title>kmeans@sw0.0 (speed=7.1, accuracy=0.136)</title></circle>
<text x="103.1" y="119.9" font-size="8" fill="#111111">km@.0</text>
<circle cx="126.7" cy="181.5" r="3.0" fill="#ECE9E2" stroke="#000000" stroke-width="0.7"><title>gaussian_mixture@sw0.0 (speed=7.56, accuracy=0.0985)</title></circle>
<circle cx="101.3" cy="259.9" r="5.0" fill="#FF9400" stroke="#000000" stroke-width="0.7"><title>agglomerative@sw0.0 (speed=7.19, accuracy=0.0442)</title></circle>
<text x="109.3" y="251.9" font-size="8" fill="#111111">agg@.0</text>
<circle cx="322.0" cy="157.7" r="3.0" fill="#ECE9E2" stroke="#000000" stroke-width="0.7"><title>spectral@sw0.0 (speed=10.4, accuracy=0.115)</title></circle>
<circle cx="92.0" cy="280.0" r="5.0" fill="#FF9400" stroke="#000000" stroke-width="0.7"><title>birch@sw0.0 (speed=7.05, accuracy=0.0303)</title></circle>
<text x="100.0" y="272.0" font-size="8" fill="#111111">birch@.0</text>
<circle cx="134.6" cy="84.6" r="3.0" fill="#ECE9E2" stroke="#000000" stroke-width="0.7"><title>kmeans@sw0.3 (speed=7.68, accuracy=0.166)</title></circle>
<circle cx="172.2" cy="122.0" r="3.0" fill="#ECE9E2" stroke="#000000" stroke-width="0.7"><title>gaussian_mixture@sw0.3 (speed=8.23, accuracy=0.14)</title></circle>
<circle cx="137.3" cy="113.7" r="5.0" fill="#FF9400" stroke="#000000" stroke-width="0.7"><title>agglomerative@sw0.3 (speed=7.72, accuracy=0.145)</title></circle>
<text x="145.3" y="105.7" font-size="8" fill="#111111">agg@.3</text>
<circle cx="299.0" cy="81.3" r="3.0" fill="#ECE9E2" stroke="#000000" stroke-width="0.7"><title>spectral@sw0.3 (speed=10.1, accuracy=0.168)</title></circle>
<circle cx="154.8" cy="136.5" r="3.0" fill="#ECE9E2" stroke="#000000" stroke-width="0.7"><title>birch@sw0.3 (speed=7.98, accuracy=0.13)</title></circle>
<circle cx="134.4" cy="62.6" r="6.0" fill="#0279EE" stroke="#000000" stroke-width="0.7"><title>kmeans@sw0.8 (speed=7.68, accuracy=0.181)</title></circle>
<text x="143.4" y="53.6" font-size="8" fill="#111111">km@.8</text>
<circle cx="166.0" cy="79.4" r="3.0" fill="#ECE9E2" stroke="#000000" stroke-width="0.7"><title>gaussian_mixture@sw0.8 (speed=8.14, accuracy=0.169)</title></circle>
<circle cx="162.6" cy="50.0" r="5.0" fill="#FF9400" stroke="#000000" stroke-width="0.7"><title>agglomerative@sw0.8 (speed=8.09, accuracy=0.19)</title></circle>
<text x="170.6" y="42.0" font-size="8" fill="#111111">agg@.8</text>
<circle cx="156.1" cy="65.7" r="5.0" fill="#FF9400" stroke="#000000" stroke-width="0.7"><title>spectral@sw0.8 (speed=8, accuracy=0.179)</title></circle>
<text x="164.1" y="57.7" font-size="8" fill="#111111">spec@.8</text>
<circle cx="142.8" cy="53.6" r="5.0" fill="#FF9400" stroke="#000000" stroke-width="0.7"><title>birch@sw0.8 (speed=7.8, accuracy=0.187)</title></circle>
<text x="150.8" y="45.6" font-size="8" fill="#111111">birch@.8</text>
<rect x="374.0" y="50.0" width="230.0" height="230.0" fill="#FAF9F3" stroke="#000000" stroke-width="1"/>
<text x="489.0" y="320.0" font-size="11" text-anchor="middle">memory (GB) (min)</text>
<text x="314.0" y="165.0" font-size="11" text-anchor="middle" transform="rotate(-90 314.0 165.0)">accuracy (ARI) (max)</text>
<line x1="374.0" y1="280.0" x2="374.0" y2="284.0" stroke="#000000" stroke-width="0.8"/>
<text x="374.0" y="296.0" font-size="8.5" text-anchor="middle" fill="#333333">6.4693</text>
<line x1="489.0" y1="280.0" x2="489.0" y2="284.0" stroke="#000000" stroke-width="0.8"/>
<text x="489.0" y="296.0" font-size="8.5" text-anchor="middle" fill="#333333">6.5478</text>
<line x1="604.0" y1="280.0" x2="604.0" y2="284.0" stroke="#000000" stroke-width="0.8"/>
<text x="604.0" y="296.0" font-size="8.5" text-anchor="middle" fill="#333333">6.6263</text>
<line x1="370.0" y1="280.0" x2="374.0" y2="280.0" stroke="#000000" stroke-width="0.8"/>
<text x="367.0" y="283.0" font-size="8.5" text-anchor="end" fill="#333333">0.0303</text>
<line x1="370.0" y1="165.0" x2="374.0" y2="165.0" stroke="#000000" stroke-width="0.8"/>
<text x="367.0" y="168.0" font-size="8.5" text-anchor="end" fill="#333333">0.1099</text>
<line x1="370.0" y1="50.0" x2="374.0" y2="50.0" stroke="#000000" stroke-width="0.8"/>
<text x="367.0" y="53.0" font-size="8.5" text-anchor="end" fill="#333333">0.1895</text>
<polyline points="374.0,127.9 374.0,62.6 452.3,259.9 452.3,113.7 452.3,50.0 499.0,65.7 604.0,280.0 604.0,53.6" fill="none" stroke="#FF9400" stroke-width="2" stroke-dasharray="4 3"/>
<circle cx="374.0" cy="127.9" r="5.0" fill="#FF9400" stroke="#000000" stroke-width="0.7"><title>kmeans@sw0.0 (memory=6.47, accuracy=0.136)</title></circle>
<text x="382.0" y="119.9" font-size="8" fill="#111111">km@.0</text>
<circle cx="504.1" cy="181.5" r="3.0" fill="#ECE9E2" stroke="#000000" stroke-width="0.7"><title>gaussian_mixture@sw0.0 (memory=6.56, accuracy=0.0985)</title></circle>
<circle cx="452.3" cy="259.9" r="5.0" fill="#FF9400" stroke="#000000" stroke-width="0.7"><title>agglomerative@sw0.0 (memory=6.52, accuracy=0.0442)</title></circle>
<text x="460.3" y="251.9" font-size="8" fill="#111111">agg@.0</text>
<circle cx="499.0" cy="157.7" r="3.0" fill="#ECE9E2" stroke="#000000" stroke-width="0.7"><title>spectral@sw0.0 (memory=6.55, accuracy=0.115)</title></circle>
<circle cx="604.0" cy="280.0" r="5.0" fill="#FF9400" stroke="#000000" stroke-width="0.7"><title>birch@sw0.0 (memory=6.63, accuracy=0.0303)</title></circle>
<text x="612.0" y="272.0" font-size="8" fill="#111111">birch@.0</text>
<circle cx="374.0" cy="84.6" r="3.0" fill="#ECE9E2" stroke="#000000" stroke-width="0.7"><title>kmeans@sw0.3 (memory=6.47, accuracy=0.166)</title></circle>
<circle cx="504.1" cy="122.0" r="3.0" fill="#ECE9E2" stroke="#000000" stroke-width="0.7"><title>gaussian_mixture@sw0.3 (memory=6.56, accuracy=0.14)</title></circle>
<circle cx="452.3" cy="113.7" r="5.0" fill="#FF9400" stroke="#000000" stroke-width="0.7"><title>agglomerative@sw0.3 (memory=6.52, accuracy=0.145)</title></circle>
<text x="460.3" y="105.7" font-size="8" fill="#111111">agg@.3</text>
<circle cx="499.0" cy="81.3" r="3.0" fill="#ECE9E2" stroke="#000000" stroke-width="0.7"><title>spectral@sw0.3 (memory=6.55, accuracy=0.168)</title></circle>
<circle cx="604.0" cy="136.5" r="3.0" fill="#ECE9E2" stroke="#000000" stroke-width="0.7"><title>birch@sw0.3 (memory=6.63, accuracy=0.13)</title></circle>
<circle cx="374.0" cy="62.6" r="6.0" fill="#0279EE" stroke="#000000" stroke-width="0.7"><title>kmeans@sw0.8 (memory=6.47, accuracy=0.181)</title></circle>
<text x="383.0" y="53.6" font-size="8" fill="#111111">km@.8</text>
<circle cx="504.1" cy="79.4" r="3.0" fill="#ECE9E2" stroke="#000000" stroke-width="0.7"><title>gaussian_mixture@sw0.8 (memory=6.56, accuracy=0.169)</title></circle>
<circle cx="452.3" cy="50.0" r="5.0" fill="#FF9400" stroke="#000000" stroke-width="0.7"><title>agglomerative@sw0.8 (memory=6.52, accuracy=0.19)</title></circle>
<text x="460.3" y="42.0" font-size="8" fill="#111111">agg@.8</text>
<circle cx="499.0" cy="65.7" r="5.0" fill="#FF9400" stroke="#000000" stroke-width="0.7"><title>spectral@sw0.8 (memory=6.55, accuracy=0.179)</title></circle>
<text x="507.0" y="57.7" font-size="8" fill="#111111">spec@.8</text>
<circle cx="604.0" cy="53.6" r="5.0" fill="#FF9400" stroke="#000000" stroke-width="0.7"><title>birch@sw0.8 (memory=6.63, accuracy=0.187)</title></circle>
<text x="612.0" y="45.6" font-size="8" fill="#111111">birch@.8</text>
<rect x="656.0" y="50.0" width="230.0" height="230.0" fill="#FAF9F3" stroke="#000000" stroke-width="1"/>
<text x="771.0" y="320.0" font-size="11" text-anchor="middle">CI width (ARI) (min)</text>
<text x="596.0" y="165.0" font-size="11" text-anchor="middle" transform="rotate(-90 596.0 165.0)">accuracy (ARI) (max)</text>
<line x1="656.0" y1="280.0" x2="656.0" y2="284.0" stroke="#000000" stroke-width="0.8"/>
<text x="656.0" y="296.0" font-size="8.5" text-anchor="middle" fill="#333333">0.0000</text>
<line x1="771.0" y1="280.0" x2="771.0" y2="284.0" stroke="#000000" stroke-width="0.8"/>
<text x="771.0" y="296.0" font-size="8.5" text-anchor="middle" fill="#333333">0.0139</text>
<line x1="886.0" y1="280.0" x2="886.0" y2="284.0" stroke="#000000" stroke-width="0.8"/>
<text x="886.0" y="296.0" font-size="8.5" text-anchor="middle" fill="#333333">0.0278</text>
<line x1="652.0" y1="280.0" x2="656.0" y2="280.0" stroke="#000000" stroke-width="0.8"/>
<text x="649.0" y="283.0" font-size="8.5" text-anchor="end" fill="#333333">0.0303</text>
<line x1="652.0" y1="165.0" x2="656.0" y2="165.0" stroke="#000000" stroke-width="0.8"/>
<text x="649.0" y="168.0" font-size="8.5" text-anchor="end" fill="#333333">0.1099</text>
<line x1="652.0" y1="50.0" x2="656.0" y2="50.0" stroke="#000000" stroke-width="0.8"/>
<text x="649.0" y="53.0" font-size="8.5" text-anchor="end" fill="#333333">0.1895</text>
<polyline points="656.0,259.9 656.0,280.0 656.0,113.7 656.0,50.0 656.0,65.7 656.0,53.6 692.5,62.6 757.0,127.9" fill="none" stroke="#FF9400" stroke-width="2" stroke-dasharray="4 3"/>
<circle cx="757.0" cy="127.9" r="5.0" fill="#FF9400" stroke="#000000" stroke-width="0.7"><title>kmeans@sw0.0 (robustness=0.0122, accuracy=0.136)</title></circle>
<text x="765.0" y="119.9" font-size="8" fill="#111111">km@.0</text>
<circle cx="786.5" cy="181.5" r="3.0" fill="#ECE9E2" stroke="#000000" stroke-width="0.7"><title>gaussian_mixture@sw0.0 (robustness=0.0158, accuracy=0.0985)</title></circle>
<circle cx="656.0" cy="259.9" r="5.0" fill="#FF9400" stroke="#000000" stroke-width="0.7"><title>agglomerative@sw0.0 (robustness=0, accuracy=0.0442)</title></circle>
<text x="664.0" y="251.9" font-size="8" fill="#111111">agg@.0</text>
<circle cx="658.3" cy="157.7" r="3.0" fill="#ECE9E2" stroke="#000000" stroke-width="0.7"><title>spectral@sw0.0 (robustness=0.000283, accuracy=0.115)</title></circle>
<circle cx="656.0" cy="280.0" r="5.0" fill="#FF9400" stroke="#000000" stroke-width="0.7"><title>birch@sw0.0 (robustness=0, accuracy=0.0303)</title></circle>
<text x="664.0" y="272.0" font-size="8" fill="#111111">birch@.0</text>
<circle cx="792.7" cy="84.6" r="3.0" fill="#ECE9E2" stroke="#000000" stroke-width="0.7"><title>kmeans@sw0.3 (robustness=0.0165, accuracy=0.166)</title></circle>
<circle cx="886.0" cy="122.0" r="3.0" fill="#ECE9E2" stroke="#000000" stroke-width="0.7"><title>gaussian_mixture@sw0.3 (robustness=0.0278, accuracy=0.14)</title></circle>
<circle cx="656.0" cy="113.7" r="5.0" fill="#FF9400" stroke="#000000" stroke-width="0.7"><title>agglomerative@sw0.3 (robustness=0, accuracy=0.145)</title></circle>
<text x="664.0" y="105.7" font-size="8" fill="#111111">agg@.3</text>
<circle cx="659.9" cy="81.3" r="3.0" fill="#ECE9E2" stroke="#000000" stroke-width="0.7"><title>spectral@sw0.3 (robustness=0.000468, accuracy=0.168)</title></circle>
<circle cx="656.0" cy="136.5" r="3.0" fill="#ECE9E2" stroke="#000000" stroke-width="0.7"><title>birch@sw0.3 (robustness=0, accuracy=0.13)</title></circle>
<circle cx="692.5" cy="62.6" r="6.0" fill="#0279EE" stroke="#000000" stroke-width="0.7"><title>kmeans@sw0.8 (robustness=0.00442, accuracy=0.181)</title></circle>
<text x="701.5" y="53.6" font-size="8" fill="#111111">km@.8</text>
<circle cx="773.3" cy="79.4" r="3.0" fill="#ECE9E2" stroke="#000000" stroke-width="0.7"><title>gaussian_mixture@sw0.8 (robustness=0.0142, accuracy=0.169)</title></circle>
<circle cx="656.0" cy="50.0" r="5.0" fill="#FF9400" stroke="#000000" stroke-width="0.7"><title>agglomerative@sw0.8 (robustness=0, accuracy=0.19)</title></circle>
<text x="664.0" y="42.0" font-size="8" fill="#111111">agg@.8</text>
<circle cx="656.0" cy="65.7" r="5.0" fill="#FF9400" stroke="#000000" stroke-width="0.7"><title>spectral@sw0.8 (robustness=0, accuracy=0.179)</title></circle>
<text x="664.0" y="57.7" font-size="8" fill="#111111">spec@.8</text>
<circle cx="656.0" cy="53.6" r="5.0" fill="#FF9400" stroke="#000000" stroke-width="0.7"><title>birch@sw0.8 (robustness=0, accuracy=0.187)</title></circle>
<text x="664.0" y="45.6" font-size="8" fill="#111111">birch@.8</text>
<circle cx="305" cy="344" r="5" fill="#FF9400" stroke="#000" stroke-width="0.7"/>
<text x="315" y="348" font-size="10">frontier (non-dominated)</text>
<circle cx="460" cy="344" r="6" fill="#0279EE" stroke="#000" stroke-width="0.7"/>
<text x="470" y="348" font-size="10">knee</text>
<circle cx="525" cy="344" r="3" fill="#ECE9E2" stroke="#000" stroke-width="0.7"/>
<text x="533" y="348" font-size="10">dominated</text>
</svg>