<?xml version="1.0" encoding="utf-8" standalone="no"?>
<!DOCTYPE svg PUBLIC "-//W3C//DTD SVG 1.1//EN"
  "http://www.w3.org/Graphics/SVG/1.1/DTD/svg11.dtd">
<svg xmlns:xlink="http://www.w3.org/1999/xlink" width="467.184766pt" height="313.929859pt" viewBox="0 0 467.184766 313.929859" xmlns="http://www.w3.org/2000/svg" version="1.1">
 <metadata>
  <rdf:RDF xmlns:dc="http://purl.org/dc/elements/1.1/" xmlns:cc="http://creativecommons.org/ns#" xmlns:rdf="http://www.w3.org/1999/02/22-rdf-syntax-ns#">
   <cc:Work>
    <dc:type rdf:resource="http://purl.org/dc/dcmitype/StillImage"/>
    <dc:date>2022-01-01T05:00:00+00:00</dc:date>
    <dc:format>image/svg+xml</dc:format>
    <dc:creator>
     <cc:Agent>
      <dc:title>Matplotlib v3.11.0, https://matplotlib.org/</dc:title>
     </cc:Agent>
    </dc:creator>
   </cc:Work>
  </rdf:RDF>
 </metadata>
 <defs>
  <style type="text/css">*{stroke-linejoin: round; stroke-linecap: butt}</style>
 </defs>
 <g id="figure_1">
  <g id="patch_1">
   <path d="M 0 313.929859
L 467.184766 313.929859
L 467.184766 0
L 0 0
z
" style="fill: #ffffff"/>
  </g>
  <g id="axes_1">
   <g id="patch_2">
    <path d="M 41.484766 276.960328
L 459.984766 276.960328
L 459.984766 21.936328
L 41.484766 21.936328
z
" style="fill: #ffffff"/>
   </g>
   <g id="matplotlib.axis_1">
    <g id="xtick_1">
     <g id="line2d_1">
      <path d="M 60.507493 276.960328
L 60.507493 21.936328
" clip-path="url(#p0ae14b592f)" style="fill: none; stroke: #b0b0b0; stroke-opacity: 0.3; stroke-width: 0.8; stroke-linecap: square"/>
     </g>
     <g id="line2d_2">
      <defs>
       <path id="m412575e00a" d="M 0 0
L 0 3.5
" style="stroke: #000000; stroke-width: 0.8"/>
      </defs>
      <g>
       <use xlink:href="#m412575e00a" x="60.507493" y="276.960328" style="stroke: #000000; stroke-width: 0.8"/>
      </g>
     </g>
     <g id="text_1">
      <text style="font-size: 10px; font-family: 'Liberation Sans', 'Arimo', 'DejaVu Sans'; text-anchor: middle" x="60.507493" y="291.240602" transform="rotate(-0 60.507493 291.240602)">0.0</text>
     </g>
    </g>
    <g id="xtick_2">
     <g id="line2d_3">
      <path d="M 203.177947 276.960328
L 203.177947 21.936328
" clip-path="url(#p0ae14b592f)" style="fill: none; stroke: #b0b0b0; stroke-opacity: 0.3; stroke-width: 0.8; stroke-linecap: square"/>
     </g>
     <g id="line2d_4">
      <g>
       <use xlink:href="#m412575e00a" x="203.177947" y="276.960328" style="stroke: #000000; stroke-width: 0.8"/>
      </g>
     </g>
     <g id="text_2">
      <text style="font-size: 10px; font-family: 'Liberation Sans', 'Arimo', 'DejaVu Sans'; text-anchor: middle" x="203.177947" y="291.240602" transform="rotate(-0 203.177947 291.240602)">0.3</text>
     </g>
    </g>
    <g id="xtick_3">
     <g id="line2d_5">
      <path d="M 440.962038 276.960328
L 440.962038 21.936328
" clip-path="url(#p0ae14b592f)" style="fill: none; stroke: #b0b0b0; stroke-opacity: 0.3; stroke-width: 0.8; stroke-linecap: square"/>
     </g>
     <g id="line2d_6">
      <g>
       <use xlink:href="#m412575e00a" x="440.962038" y="276.960328" style="stroke: #000000; stroke-width: 0.8"/>
      </g>
     </g>
     <g id="text_3">
      <text style="font-size: 10px; font-family: 'Liberation Sans', 'Arimo', 'DejaVu Sans'; text-anchor: middle" x="440.962038" y="291.240602" transform="rotate(-0 440.962038 291.240602)">0.8</text>
     </g>
    </g>
    <g id="text_4">
     <text style="font-size: 10px; font-family: 'Liberation Sans', 'Arimo', 'DejaVu Sans'; text-anchor: middle" x="250.734766" y="304.625367" transform="rotate(-0 250.734766 304.625367)">spatial_weight (0 = expression only, 1 = space only)</text>
    </g>
   </g>
   <g id="matplotlib.axis_2">
    <g id="ytick_1">
     <g id="line2d_7">
      <path d="M 41.484766 235.594174
L 459.984766 235.594174
" clip-path="url(#p0ae14b592f)" style="fill: none; stroke: #b0b0b0; stroke-opacity: 0.3; stroke-width: 0.8; stroke-linecap: square"/>
     </g>
     <g id="line2d_8">
      <defs>
       <path id="m8ef6a415f4" d="M 0 0
L -3.5 0
" style="stroke: #000000; stroke-width: 0.8"/>
      </defs>
      <g>
       <use xlink:href="#m8ef6a415f4" x="41.484766" y="235.594174" style="stroke: #000000; stroke-width: 0.8"/>
      </g>
     </g>
     <g id="text_5">
      <text style="font-size: 10px; font-family: 'Liberation Sans', 'Arimo', 'DejaVu Sans'; text-anchor: end" x="34.484766" y="239.234311" transform="rotate(-0 34.484766 239.234311)">0.1</text>
     </g>
    </g>
    <g id="ytick_2">
     <g id="line2d_9">
      <path d="M 41.484766 184.247774
L 459.984766 184.247774
" clip-path="url(#p0ae14b592f)" style="fill: none; stroke: #b0b0b0; stroke-opacity: 0.3; stroke-width: 0.8; stroke-linecap: square"/>
     </g>
     <g id="line2d_10">
      <g>
       <use xlink:href="#m8ef6a415f4" x="41.484766" y="184.247774" style="stroke: #000000; stroke-width: 0.8"/>
      </g>
     </g>
     <g id="text_6">
      <text style="font-size: 10px; font-family: 'Liberation Sans', 'Arimo', 'DejaVu Sans'; text-anchor: end" x="34.484766" y="187.88791" transform="rotate(-0 34.484766 187.88791)">0.2</text>
     </g>
    </g>
    <g id="ytick_3">
     <g id="line2d_11">
      <path d="M 41.484766 132.901373
L 459.984766 132.901373
" clip-path="url(#p0ae14b592f)" style="fill: none; stroke: #b0b0b0; stroke-opacity: 0.3; stroke-width: 0.8; stroke-linecap: square"/>
     </g>
     <g id="line2d_12">
      <g>
       <use xlink:href="#m8ef6a415f4" x="41.484766" y="132.901373" style="stroke: #000000; stroke-width: 0.8"/>
      </g>
     </g>
     <g id="text_7">
      <text style="font-size: 10px; font-family: 'Liberation Sans', 'Arimo', 'DejaVu Sans'; text-anchor: end" x="34.484766" y="136.54151" transform="rotate(-0 34.484766 136.54151)">0.3</text>
     </g>
    </g>
    <g id="ytick_4">
     <g id="line2d_13">
      <path d="M 41.484766 81.554973
L 459.984766 81.554973
" clip-path="url(#p0ae14b592f)" style="fill: none; stroke: #b0b0b0; stroke-opacity: 0.3; stroke-width: 0.8; stroke-linecap: square"/>
     </g>
     <g id="line2d_14">
      <g>
       <use xlink:href="#m8ef6a415f4" x="41.484766" y="81.554973" style="stroke: #000000; stroke-width: 0.8"/>
      </g>
     </g>
     <g id="text_8">
      <text style="font-size: 10px; font-family: 'Liberation Sans', 'Arimo', 'DejaVu Sans'; text-anchor: end" x="34.484766" y="85.195109" transform="rotate(-0 34.484766 85.195109)">0.4</text>
     </g>
    </g>
    <g id="ytick_5">
     <g id="line2d_15">
      <path d="M 41.484766 30.208572
L 459.984766 30.208572
" clip-path="url(#p0ae14b592f)" style="fill: none; stroke: #b0b0b0; stroke-opacity: 0.3; stroke-width: 0.8; stroke-linecap: square"/>
     </g>
     <g id="line2d_16">
      <g>
       <use xlink:href="#m8ef6a415f4" x="41.484766" y="30.208572" style="stroke: #000000; stroke-width: 0.8"/>
      </g>
     </g>
     <g id="text_9">
      <text style="font-size: 10px; font-family: 'Liberation Sans', 'Arimo', 'DejaVu Sans'; text-anchor: end" x="34.484766" y="33.848709" transform="rotate(-0 34.484766 33.848709)">0.5</text>
     </g>
    </g>
    <g id="text_10">
     <text style="font-size: 10px; font-family: 'Liberation Sans', 'Arimo', 'DejaVu Sans'; text-anchor: middle" x="14.480273" y="149.448328" transform="rotate(-90 14.480273 149.448328)">Mean ARI (methods x seeds)</text>
    </g>
   </g>
   <g id="line2d_17">
    <path d="M 60.507493 228.21658
L 203.177947 179.510212
L 440.962038 166.462254
" clip-path="url(#p0ae14b592f)" style="fill: none; stroke: #0279ee; stroke-width: 2; stroke-linecap: square"/>
    <defs>
     <path id="m352c441155" d="M 0 3
C 0.795609 3 1.55874 2.683901 2.12132 2.12132
C 2.683901 1.55874 3 0.795609 3 0
C 3 -0.795609 2.683901 -1.55874 2.12132 -2.12132
C 1.55874 -2.683901 0.795609 -3 0 -3
C -0.795609 -3 -1.55874 -2.683901 -2.12132 -2.12132
C -2.683901 -1.55874 -3 -0.795609 -3 0
C -3 0.795609 -2.683901 1.55874 -2.12132 2.12132
C -1.55874 2.683901 -0.795609 3 0 3
z
" style="stroke: #0279ee"/>
    </defs>
    <g clip-path="url(#p0ae14b592f)">
     <use xlink:href="#m352c441155" x="60.507493" y="228.21658" style="fill: #0279ee; stroke: #0279ee"/>
     <use xlink:href="#m352c441155" x="203.177947" y="179.510212" style="fill: #0279ee; stroke: #0279ee"/>
     <use xlink:href="#m352c441155" x="440.962038" y="166.462254" style="fill: #0279ee; stroke: #0279ee"/>
    </g>
   </g>
   <g id="line2d_18">
    <path d="M 60.507493 93.061682
L 203.177947 129.426115
L 440.962038 265.368328
" clip-path="url(#p0ae14b592f)" style="fill: none; stroke: #ff9400; stroke-width: 2; stroke-linecap: square"/>
    <defs>
     <path id="mfb918507d6" d="M 0 3
C 0.795609 3 1.55874 2.683901 2.12132 2.12132
C 2.683901 1.55874 3 0.795609 3 0
C 3 -0.795609 2.683901 -1.55874 2.12132 -2.12132
C 1.55874 -2.683901 0.795609 -3 0 -3
C -0.795609 -3 -1.55874 -2.683901 -2.12132 -2.12132
C -2.683901 -1.55874 -3 -0.795609 -3 0
C -3 0.795609 -2.683901 1.55874 -2.12132 2.12132
C -1.55874 2.683901 -0.795609 3 0 3
z
" style="stroke: #ff9400"/>
    </defs>
    <g clip-path="url(#p0ae14b592f)">
     <use xlink:href="#mfb918507d6" x="60.507493" y="93.061682" style="fill: #ff9400; stroke: #ff9400"/>
     <use xlink:href="#mfb918507d6" x="203.177947" y="129.426115" style="fill: #ff9400; stroke: #ff9400"/>
     <use xlink:href="#mfb918507d6" x="440.962038" y="265.368328" style="fill: #ff9400; stroke: #ff9400"/>
    </g>
   </g>
   <g id="line2d_19">
    <path d="M 60.507493 261.187878
L 203.177947 248.182257
L 440.962038 252.644689
" clip-path="url(#p0ae14b592f)" style="fill: none; stroke: #75a025; stroke-width: 2; stroke-linecap: square"/>
    <defs>
     <path id="md6793774aa" d="M 0 3
C 0.795609 3 1.55874 2.683901 2.12132 2.12132
C 2.683901 1.55874 3 0.795609 3 0
C 3 -0.795609 2.683901 -1.55874 2.12132 -2.12132
C 1.55874 -2.683901 0.795609 -3 0 -3
C -0.795609 -3 -1.55874 -2.683901 -2.12132 -2.12132
C -2.683901 -1.55874 -3 -0.795609 -3 0
C -3 0.795609 -2.683901 1.55874 -2.12132 2.12132
C -1.55874 2.683901 -0.795609 3 0 3
z
" style="stroke: #75a025"/>
    </defs>
    <g clip-path="url(#p0ae14b592f)">
     <use xlink:href="#md6793774aa" x="60.507493" y="261.187878" style="fill: #75a025; stroke: #75a025"/>
     <use xlink:href="#md6793774aa" x="203.177947" y="248.182257" style="fill: #75a025; stroke: #75a025"/>
     <use xlink:href="#md6793774aa" x="440.962038" y="252.644689" style="fill: #75a025; stroke: #75a025"/>
    </g>
   </g>
   <g id="line2d_20">
    <path d="M 60.507493 33.528328
L 203.177947 51.733559
L 440.962038 162.777433
" clip-path="url(#p0ae14b592f)" style="fill: none; stroke: #fd9bed; stroke-width: 2; stroke-linecap: square"/>
    <defs>
     <path id="m73a2b696c6" d="M 0 3
C 0.795609 3 1.55874 2.683901 2.12132 2.12132
C 2.683901 1.55874 3 0.795609 3 0
C 3 -0.795609 2.683901 -1.55874 2.12132 -2.12132
C 1.55874 -2.683901 0.795609 -3 0 -3
C -0.795609 -3 -1.55874 -2.683901 -2.12132 -2.12132
C -2.683901 -1.55874 -3 -0.795609 -3 0
C -3 0.795609 -2.683901 1.55874 -2.12132 2.12132
C -1.55874 2.683901 -0.795609 3 0 3
z
" style="stroke: #fd9bed"/>
    </defs>
    <g clip-path="url(#p0ae14b592f)">
     <use xlink:href="#m73a2b696c6" x="60.507493" y="33.528328" style="fill: #fd9bed; stroke: #fd9bed"/>
     <use xlink:href="#m73a2b696c6" x="203.177947" y="51.733559" style="fill: #fd9bed; stroke: #fd9bed"/>
     <use xlink:href="#m73a2b696c6" x="440.962038" y="162.777433" style="fill: #fd9bed; stroke: #fd9bed"/>
    </g>
   </g>
   <g id="patch_3">
    <path d="M 41.484766 276.960328
L 41.484766 21.936328
" style="fill: none; stroke: #000000; stroke-width: 0.8; stroke-linejoin: miter; stroke-linecap: square"/>
   </g>
   <g id="patch_4">
    <path d="M 459.984766 276.960328
L 459.984766 21.936328
" style="fill: none; stroke: #000000; stroke-width: 0.8; stroke-linejoin: miter; stroke-linecap: square"/>
   </g>
   <g id="patch_5">
    <path d="M 41.484766 276.960328
L 459.984766 276.960328
" style="fill: none; stroke: #000000; stroke-width: 0.8; stroke-linejoin: miter; stroke-linecap: square"/>
   </g>
   <g id="patch_6">
    <path d="M 41.484766 21.936328
L 459.984766 21.936328
" style="fill: none; stroke: #000000; stroke-width: 0.8; stroke-linejoin: miter; stroke-linecap: square"/>
   </g>
   <g id="text_11">
    <text style="font-size: 12px; font-family: 'Liberation Sans', 'Arimo', 'DejaVu Sans'; text-anchor: middle" x="250.734766" y="15.936328" transform="rotate(-0 250.734766 15.936328)">Effect of spatial weighting by platform</text>
   </g>
   <g id="legend_1">
    <g id="patch_7">
     <path d="M 385.649766 87.752344
L 454.384766 87.752344
Q 455.984766 87.752344 455.984766 86.152344
L 455.984766 27.536328
Q 455.984766 25.936328 454.384766 25.936328
L 385.649766 25.936328
Q 384.049766 25.936328 384.049766 27.536328
L 384.049766 86.152344
Q 384.049766 87.752344 385.649766 87.752344
z
" style="fill: #ffffff; opacity: 0.8; stroke: #cccccc; stroke-linejoin: miter"/>
    </g>
    <g id="text_12">
     <text style="font-size: 10px; font-family: 'Liberation Sans', 'Arimo', 'DejaVu Sans'; text-anchor: start" x="401.957109" y="36.416602" transform="rotate(-0 401.957109 36.416602)">platform</text>
    </g>
    <g id="line2d_21">
     <path d="M 387.249766 45.545312
L 395.249766 45.545312
L 403.249766 45.545312
" style="fill: none; stroke: #0279ee; stroke-width: 2; stroke-linecap: square"/>
     <g>
      <use xlink:href="#m352c441155" x="395.249766" y="45.545312" style="fill: #0279ee; stroke: #0279ee"/>
     </g>
    </g>
    <g id="text_13">
     <text style="font-size: 8px; font-family: 'Liberation Sans', 'Arimo', 'DejaVu Sans'; text-anchor: start" x="409.649766" y="48.345312" transform="rotate(-0 409.649766 48.345312)">Visium</text>
    </g>
    <g id="line2d_22">
     <path d="M 387.249766 57.053125
L 395.249766 57.053125
L 403.249766 57.053125
" style="fill: none; stroke: #ff9400; stroke-width: 2; stroke-linecap: square"/>
     <g>
      <use xlink:href="#mfb918507d6" x="395.249766" y="57.053125" style="fill: #ff9400; stroke: #ff9400"/>
     </g>
    </g>
    <g id="text_14">
     <text style="font-size: 8px; font-family: 'Liberation Sans', 'Arimo', 'DejaVu Sans'; text-anchor: start" x="409.649766" y="59.853125" transform="rotate(-0 409.649766 59.853125)">MERFISH</text>
    </g>
    <g id="line2d_23">
     <path d="M 387.249766 68.560937
L 395.249766 68.560937
L 403.249766 68.560937
" style="fill: none; stroke: #75a025; stroke-width: 2; stroke-linecap: square"/>
     <g>
      <use xlink:href="#md6793774aa" x="395.249766" y="68.560937" style="fill: #75a025; stroke: #75a025"/>
     </g>
    </g>
    <g id="text_15">
     <text style="font-size: 8px; font-family: 'Liberation Sans', 'Arimo', 'DejaVu Sans'; text-anchor: start" x="409.649766" y="71.360937" transform="rotate(-0 409.649766 71.360937)">Slide-seqV2</text>
    </g>
    <g id="line2d_24">
     <path d="M 387.249766 80.06875
L 395.249766 80.06875
L 403.249766 80.06875
" style="fill: none; stroke: #fd9bed; stroke-width: 2; stroke-linecap: square"/>
     <g>
      <use xlink:href="#m73a2b696c6" x="395.249766" y="80.06875" style="fill: #fd9bed; stroke: #fd9bed"/>
     </g>
    </g>
    <g id="text_16">
     <text style="font-size: 8px; font-family: 'Liberation Sans', 'Arimo', 'DejaVu Sans'; text-anchor: start" x="409.649766" y="82.86875" transform="rotate(-0 409.649766 82.86875)">Xenium</text>
    </g>
   </g>
  </g>
 </g>
 <defs>
  <clipPath id="p0ae14b592f">
   <rect x="41.484766" y="21.936328" width="418.5" height="255.024"/>
  </clipPath>
 </defs>
</svg>
